<svg xmlns="http://www.w3.org/2000/svg" viewBox="0 0 84.81 100"><path fill="#1285FF" d="M0 24.99v49.92l41.59 24.2v-22.6L19.5 63.61V36.26L0 24.99z"/><path d="M62.69 11.39L43.06 0 0 25l19.5 11.26q21.6-12.49 43.19-24.87zM43.28 100l41.53-24.19V26.2c-6.52 3.71-13 7.44-19.47 11.18v27.13C58 68.78 50.62 73.16 43.28 77.37z" fill="#F74556"/><path fill="#1285FF" d="M22.12 37.79v23.88l19.47 11.3V49.09l-19.47-11.3z"/><path d="M84.81 24.19L65.18 12.83l-43.06 25 19.47 11.3q21.59-12.58 43.22-24.94z" fill="#F74556"/></svg>
